<svg xmlns="http://www.w3.org/2000/svg" width="23.345" height="23.345" viewBox="0 0 23.345 23.345">
  <path id="person" d="M171.673-788.327a5.62,5.62,0,0,1-4.122-1.714,5.62,5.62,0,0,1-1.714-4.122,5.62,5.62,0,0,1,1.714-4.122A5.62,5.62,0,0,1,171.673-800a5.62,5.62,0,0,1,4.122,1.714,5.62,5.62,0,0,1,1.714,4.122,5.62,5.62,0,0,1-1.714,4.122A5.62,5.62,0,0,1,171.673-788.327ZM160-776.655v-4.085a4.274,4.274,0,0,1,.638-2.28,4.255,4.255,0,0,1,1.7-1.587,21.668,21.668,0,0,1,4.6-1.7,20.08,20.08,0,0,1,4.742-.565,20.08,20.08,0,0,1,4.742.565,21.668,21.668,0,0,1,4.6,1.7,4.255,4.255,0,0,1,1.7,1.587,4.274,4.274,0,0,1,.638,2.28v4.085Z" transform="translate(-160 800)" fill="#707070"/>
</svg>
